<svg xmlns="http://www.w3.org/2000/svg" width="320" height="460" viewBox="0 0 320 460" fill="none">
  <rect width="320" height="460" rx="28" fill="white"/>
  <text x="160" y="68" text-anchor="middle" fill="#E1306C" font-family="Segoe UI, Arial, sans-serif" font-size="34" font-weight="700">Instagram</text>
  <rect x="40" y="102" width="240" height="240" rx="28" fill="url(#g1)"/>
  <rect x="68" y="130" width="44" height="44" rx="10" fill="white" fill-opacity="0.95"/>
  <rect x="208" y="130" width="44" height="44" rx="10" fill="white" fill-opacity="0.95"/>
  <rect x="68" y="270" width="44" height="44" rx="10" fill="white" fill-opacity="0.95"/>
  <circle cx="160" cy="222" r="50" fill="white" fill-opacity="0.96"/>
  <circle cx="160" cy="222" r="27" stroke="url(#g1)" stroke-width="10"/>
  <circle cx="197" cy="184" r="8" fill="url(#g1)"/>
  <g fill="white" fill-opacity="0.82">
    <circle cx="130" cy="156" r="4"/><circle cx="144" cy="154" r="4"/><circle cx="176" cy="154" r="4"/><circle cx="188" cy="158" r="4"/>
    <circle cx="120" cy="184" r="4"/><circle cx="98" cy="206" r="4"/><circle cx="220" cy="204" r="4"/><circle cx="202" cy="286" r="4"/>
    <circle cx="132" cy="294" r="4"/><circle cx="228" cy="248" r="4"/><circle cx="104" cy="248" r="4"/><circle cx="136" cy="176" r="3"/>
    <circle cx="178" cy="288" r="3"/><circle cx="182" cy="130" r="3"/><circle cx="92" cy="168" r="3"/><circle cx="226" cy="168" r="3"/>
    <circle cx="92" cy="286" r="3"/><circle cx="226" cy="286" r="3"/>
  </g>
  <rect x="58" y="370" width="204" height="54" rx="27" fill="url(#g2)"/>
  <circle cx="94" cy="397" r="17" fill="white"/>
  <circle cx="94" cy="397" r="10" stroke="url(#g2)" stroke-width="4"/>
  <text x="175" y="404" text-anchor="middle" fill="white" font-family="Segoe UI, Arial, sans-serif" font-size="22" font-weight="800">FOLLOW US</text>
  <defs>
    <linearGradient id="g1" x1="52" y1="118" x2="266" y2="326" gradientUnits="userSpaceOnUse">
      <stop stop-color="#F59E0B"/>
      <stop offset="0.45" stop-color="#E1306C"/>
      <stop offset="1" stop-color="#7C3AED"/>
    </linearGradient>
    <linearGradient id="g2" x1="58" y1="370" x2="262" y2="424" gradientUnits="userSpaceOnUse">
      <stop stop-color="#EC4899"/>
      <stop offset="1" stop-color="#F59E0B"/>
    </linearGradient>
  </defs>
</svg>
