<svg xmlns="http://www.w3.org/2000/svg" width="320" height="420" viewBox="0 0 320 420" fill="none">
  <rect width="320" height="420" rx="28" fill="white"/>
  <text x="160" y="68" text-anchor="middle" fill="#2496E8" font-family="Segoe UI, Arial, sans-serif" font-size="34" font-weight="700">Telegram</text>
  <rect x="42" y="104" width="236" height="236" rx="28" fill="url(#g1)"/>
  <rect x="70" y="132" width="46" height="46" rx="11" fill="white" fill-opacity="0.96"/>
  <rect x="204" y="132" width="46" height="46" rx="11" fill="white" fill-opacity="0.96"/>
  <rect x="70" y="266" width="46" height="46" rx="11" fill="white" fill-opacity="0.96"/>
  <g fill="white" fill-opacity="0.9">
    <rect x="126" y="134" width="14" height="14" rx="3"/><rect x="144" y="134" width="14" height="14" rx="3"/><rect x="162" y="148" width="14" height="14" rx="3"/>
    <rect x="180" y="134" width="14" height="14" rx="3"/><rect x="126" y="286" width="14" height="14" rx="3"/><rect x="144" y="272" width="14" height="14" rx="3"/>
    <rect x="180" y="286" width="14" height="14" rx="3"/><rect x="202" y="246" width="14" height="14" rx="3"/><rect x="104" y="246" width="14" height="14" rx="3"/>
  </g>
  <circle cx="160" cy="222" r="34" fill="white"/>
  <circle cx="160" cy="222" r="19" fill="url(#g1)"/>
  <path d="M151 223.5L181 208L163.5 238L160.5 225.5L151 223.5Z" fill="white"/>
  <text x="160" y="384" text-anchor="middle" fill="#2563EB" font-family="Segoe UI, Arial, sans-serif" font-size="20" font-weight="700">Join our updates channel</text>
  <defs>
    <linearGradient id="g1" x1="42" y1="104" x2="278" y2="340" gradientUnits="userSpaceOnUse">
      <stop stop-color="#2563EB"/>
      <stop offset="1" stop-color="#38BDF8"/>
    </linearGradient>
  </defs>
</svg>
